HIERARCHY
ROOT root
{
	OFFSET 0.000000 0.000000 0.000000
	CHANNELS 6 Xposition Yposition Zposition Zrotation Yrotation Xrotation
	JOINT lhip
	{
		OFFSET 0.058581 -0.082280 -0.017664
		CHANNELS 3 Zrotation Yrotation Xrotation
		JOINT lknee
		{
			OFFSET 0.043451 -0.386469 0.008037
			CHANNELS 3 Zrotation Yrotation Xrotation
			JOINT lankle
			{
				OFFSET -0.014790 -0.426874 -0.037428
				CHANNELS 3 Zrotation Yrotation Xrotation
				JOINT ltoe
				{
					OFFSET 0.041054 -0.060286 0.122042
					CHANNELS 3 Zrotation Yrotation Xrotation
					End Site
					{
						OFFSET 0.000000 0.000000 0.000000
					}
				}
			}
		}
	}
	JOINT rhip
	{
		OFFSET -0.060310 -0.090513 -0.013543
		CHANNELS 3 Zrotation Yrotation Xrotation
		JOINT rknee
		{
			OFFSET -0.043257 -0.383688 -0.004843
			CHANNELS 3 Zrotation Yrotation Xrotation
			JOINT rankle
			{
				OFFSET 0.019056 -0.420046 -0.034562
				CHANNELS 3 Zrotation Yrotation Xrotation
				JOINT rtoe
				{
					OFFSET -0.034840 -0.062106 0.130323
					CHANNELS 3 Zrotation Yrotation Xrotation
					End Site
					{
						OFFSET 0.000000 0.000000 0.000000
					}
				}
			}
		}
	}
	JOINT lowerback
	{
		OFFSET 0.004439 0.124404 -0.038385
		CHANNELS 3 Zrotation Yrotation Xrotation
		JOINT upperback
		{
			OFFSET 0.004488 0.137956 0.026820
			CHANNELS 3 Zrotation Yrotation Xrotation
			JOINT chest
			{
				OFFSET -0.002265 0.056032 0.002855
				CHANNELS 3 Zrotation Yrotation Xrotation
				JOINT lowerneck
				{
					OFFSET -0.013390 0.211636 -0.033468
					CHANNELS 3 Zrotation Yrotation Xrotation
					JOINT upperneck
					{
						OFFSET 0.010113 0.088937 0.050410
						CHANNELS 3 Zrotation Yrotation Xrotation
						End Site
						{
							OFFSET 0.000000 0.000000 0.000000
						}
					}
				}
				JOINT lclavicle
				{
					OFFSET 0.071702 0.114000 -0.018898
					CHANNELS 3 Zrotation Yrotation Xrotation
					JOINT lshoulder
					{
						OFFSET 0.122921 0.045205 -0.019046
						CHANNELS 3 Zrotation Yrotation Xrotation
						JOINT lelbow
						{
							OFFSET 0.255332 -0.015649 -0.022946
							CHANNELS 3 Zrotation Yrotation Xrotation
							JOINT lwrist
							{
								OFFSET 0.265709 0.012698 -0.007375
								CHANNELS 3 Zrotation Yrotation Xrotation
								End Site
								{
									OFFSET 0.000000 0.000000 0.000000
								}
							}
						}
					}
				}
				JOINT rclavicle
				{
					OFFSET -0.082954 0.112472 -0.023707
					CHANNELS 3 Zrotation Yrotation Xrotation
					JOINT rshoulder
					{
						OFFSET -0.113228 0.046853 -0.008472
						CHANNELS 3 Zrotation Yrotation Xrotation
						JOINT relbow
						{
							OFFSET -0.260127 -0.014369 -0.031269
							CHANNELS 3 Zrotation Yrotation Xrotation
							JOINT rwrist
							{
								OFFSET -0.269108 0.006794 -0.006027
								CHANNELS 3 Zrotation Yrotation Xrotation
								End Site
								{
									OFFSET 0.000000 0.000000 0.000000
								}
							}
						}
					}
				}
			}
		}
	}
}
MOTION
Frames: 5
Frame Time: 0.033333
0.350104 0.139060 0.775182 72.702816 6.469347 94.417160 26.230533 2.887383 -17.530977 -19.073059 -5.134428 82.388258 -5.494745 4.911695 -32.487734 0.000000 -0.000000 0.000000 -8.618501 5.251145 -62.864591 8.887979 -9.077529 64.620425 -1.870892 8.634363 -21.239977 0.000000 -0.000000 0.000000 -5.090355 -8.948526 24.049317 6.867766 -6.428613 -4.348850 4.056890 -6.463328 0.901195 -3.697627 25.679785 14.593298 9.798064 12.844326 -19.386800 -0.254617 -29.305676 -4.427640 -19.007751 -36.871962 -8.981137 56.502402 -42.290823 -31.310251 17.475807 -17.970192 -17.803637 7.152498 33.964935 -3.720909 41.299832 40.814863 2.401244 -155.079391 54.415288 -138.975885 -21.939269 18.780612 -46.514166 
0.348476 0.141516 0.767756 71.361006 8.166023 94.086207 28.148533 4.492933 -17.994910 -20.343895 -5.206740 84.969484 -5.425013 5.505778 -31.633384 0.000000 -0.000000 0.000000 -7.705291 6.074560 -63.730889 10.239114 -9.868019 64.865306 -1.630145 8.137822 -20.827811 0.000000 -0.000000 0.000000 -5.875783 -10.726683 26.897829 8.669049 -8.468527 -6.968781 5.099572 -8.343187 2.486023 -5.733826 29.563764 15.331550 9.160660 14.447032 -20.676348 3.719662 -31.043228 -3.562001 -11.452012 -33.022135 -16.247764 38.971319 -24.556543 -20.949431 11.582254 -13.222395 -15.193056 6.410795 34.976415 -4.492099 40.668622 40.762722 0.449461 -158.574603 55.820580 -143.444580 -20.698049 18.581172 -44.705798 
0.347750 0.145499 0.761775 70.976537 8.503661 94.010309 28.773147 5.139369 -18.492947 -20.881223 -4.892171 86.363978 -5.302802 5.181046 -31.473109 0.000000 -0.000000 0.000000 -7.858911 5.425605 -64.545458 10.675101 -10.605290 65.534523 -1.544645 8.569567 -20.621520 0.000000 -0.000000 0.000000 -5.511405 -11.573147 28.569765 9.006893 -8.822645 -8.287338 5.079012 -8.741755 3.475580 -7.577151 29.456782 15.118718 8.027139 14.577891 -21.927764 5.597668 -29.805681 -3.270419 -11.474908 -32.809916 -19.585354 39.909314 -20.012836 -30.711644 10.402858 -6.339834 -18.040118 5.229017 34.323544 -4.748834 40.761088 42.014855 -0.210046 -160.519113 55.520225 -145.561628 -19.976722 17.470813 -43.399848 
0.346634 0.148334 0.758001 71.464710 7.453965 94.298057 28.356008 5.293773 -19.322743 -20.956596 -4.255239 86.633495 -5.298207 3.876289 -31.542010 0.000000 -0.000000 0.000000 -8.748187 4.174312 -65.488521 10.201438 -10.547958 66.641779 -1.751788 9.116756 -20.438481 0.000000 -0.000000 0.000000 -4.544690 -11.117421 28.539416 7.848312 -7.660296 -7.838507 4.307526 -7.419581 3.399114 -8.106957 25.937101 14.996896 7.760455 13.321377 -22.534131 3.661534 -28.071444 -3.758410 -14.480637 -35.405160 -18.958606 51.191524 -27.570473 -46.936987 14.484051 -2.755580 -24.237403 4.951178 33.462791 -4.098338 39.729488 43.151470 -0.901600 -159.928198 54.570757 -145.156195 -21.050773 15.888373 -43.252869 
0.344969 0.148688 0.757365 74.486951 5.582614 94.500737 27.744767 4.696746 -21.082680 -20.872881 -4.015246 86.399867 -5.286203 1.599015 -31.415165 0.000000 -0.000000 0.000000 -10.349586 2.434611 -65.557442 8.415280 -10.020561 68.013284 -1.976039 8.981901 -20.560610 0.000000 -0.000000 0.000000 -3.475617 -9.730475 28.100390 6.530842 -6.085837 -6.207647 3.625258 -5.916706 2.422275 -7.287259 21.400707 15.400384 8.644699 10.322586 -22.296448 1.175908 -27.245272 -4.097813 -20.697757 -38.418307 -13.612188 67.751722 -35.983678 -60.836370 18.521486 -5.935520 -29.308992 4.515487 32.974448 -4.065584 39.078034 43.321490 -0.752733 -156.322332 53.978656 -141.213388 -21.986330 15.833814 -44.968211 
